<svg width="93" height="65" viewBox="0 0 93 65" fill="none" xmlns="http://www.w3.org/2000/svg">
<path fill-rule="evenodd" clip-rule="evenodd" d="M86.6359 41.0496H6.80591C9.65116 25.127 19.1656 13.425 30.4646 13.425C37.7849 13.425 44.3562 18.3368 48.8501 26.126C53.0253 21.0821 58.2968 18.0722 64.0272 18.0722C74.1952 18.0722 82.918 27.5487 86.6359 41.0496Z" fill="#408D03"/>
<rect y="1.57077" width="2.83991" height="32.5299" transform="rotate(-33.5805 0 1.57077)" fill="#408D03"/>
<rect width="2.83991" height="32.5299" transform="matrix(-0.83311 -0.553108 -0.553108 0.83311 88 1.57077)" fill="#408D03"/>
<path d="M1.59801 60V45.4545H3.79261V51.7756H11.044V45.4545H13.2457V60H11.044V53.6577H3.79261V60H1.59801ZM17.6705 60H15.3409L20.5753 45.4545H23.1108L28.3452 60H26.0156L21.9034 48.0966H21.7898L17.6705 60ZM18.0611 54.304H25.6179V56.1506H18.0611V54.304ZM30.4457 60V45.4545H35.6303C36.7572 45.4545 37.6924 45.6487 38.4357 46.0369C39.1838 46.4252 39.7425 46.9626 40.1119 47.6491C40.4812 48.331 40.6658 49.1193 40.6658 50.0142C40.6658 50.9044 40.4788 51.688 40.1048 52.3651C39.7354 53.0374 39.1767 53.5606 38.4286 53.9347C37.6853 54.3087 36.7501 54.4957 35.6232 54.4957H31.6957V52.6065H35.4244C36.1346 52.6065 36.7122 52.5047 37.1573 52.3011C37.6071 52.0975 37.9362 51.8016 38.1445 51.4134C38.3529 51.0251 38.457 50.5587 38.457 50.0142C38.457 49.465 38.3505 48.9891 38.1374 48.5866C37.9291 48.1842 37.6 47.8764 37.1502 47.6634C36.7051 47.4455 36.1204 47.3366 35.396 47.3366H32.6403V60H30.4457ZM37.6261 53.4375L41.2198 60H38.7198L35.1971 53.4375H37.6261ZM43.3363 60V45.4545H48.663C49.6952 45.4545 50.5498 45.625 51.2269 45.9659C51.904 46.3021 52.4106 46.759 52.7468 47.3366C53.083 47.9096 53.2511 48.5559 53.2511 49.2756C53.2511 49.8816 53.1398 50.393 52.9173 50.8097C52.6947 51.2216 52.3964 51.553 52.0224 51.804C51.6531 52.0502 51.2459 52.2301 50.8008 52.3438V52.4858C51.2837 52.5095 51.7549 52.6657 52.2141 52.9545C52.6781 53.2386 53.0617 53.6435 53.3647 54.169C53.6677 54.6946 53.8192 55.3338 53.8192 56.0866C53.8192 56.83 53.6441 57.4976 53.2937 58.0895C52.948 58.6766 52.413 59.143 51.6886 59.4886C50.9641 59.8295 50.0385 60 48.9116 60H43.3363ZM45.5309 58.1179H48.6985C49.7496 58.1179 50.5025 57.9143 50.957 57.5071C51.4116 57.0999 51.6388 56.5909 51.6388 55.9801C51.6388 55.5208 51.5228 55.0994 51.2908 54.7159C51.0588 54.3324 50.7274 54.027 50.2965 53.7997C49.8704 53.5724 49.3638 53.4588 48.7766 53.4588H45.5309V58.1179ZM45.5309 51.7472H48.4712C48.9637 51.7472 49.4064 51.6525 49.7994 51.4631C50.1971 51.2737 50.512 51.0085 50.744 50.6676C50.9807 50.322 51.0991 49.9148 51.0991 49.446C51.0991 48.8447 50.8884 48.3404 50.467 47.9332C50.0456 47.526 49.3993 47.3224 48.5281 47.3224H45.5309V51.7472ZM56.4222 60V45.4545H65.5415V47.3438H58.6168V51.7756H65.0657V53.6577H58.6168V58.1108H65.6268V60H56.4222ZM76.4062 49.2756C76.3305 48.6032 76.018 48.0824 75.4688 47.7131C74.9195 47.339 74.2282 47.152 73.3949 47.152C72.7983 47.152 72.2822 47.2467 71.8466 47.4361C71.411 47.6207 71.0724 47.8764 70.831 48.2031C70.5942 48.5251 70.4759 48.892 70.4759 49.304C70.4759 49.6496 70.5563 49.9479 70.7173 50.1989C70.883 50.4498 71.0985 50.6605 71.3636 50.831C71.6335 50.9967 71.9223 51.1364 72.2301 51.25C72.5379 51.3589 72.8338 51.4489 73.1179 51.5199L74.5384 51.8892C75.0024 52.0028 75.4782 52.1567 75.9659 52.3509C76.4536 52.545 76.9058 52.8007 77.3224 53.1179C77.7391 53.4351 78.0753 53.8281 78.331 54.2969C78.5914 54.7656 78.7216 55.3267 78.7216 55.9801C78.7216 56.804 78.5085 57.5355 78.0824 58.1747C77.661 58.8139 77.0478 59.3182 76.2429 59.6875C75.4427 60.0568 74.4744 60.2415 73.3381 60.2415C72.2491 60.2415 71.3068 60.0687 70.5114 59.723C69.7159 59.3774 69.0933 58.8873 68.6435 58.2528C68.1937 57.6136 67.9451 56.8561 67.8977 55.9801H70.0994C70.142 56.5057 70.3125 56.9437 70.6108 57.294C70.9138 57.6397 71.2997 57.8977 71.7685 58.0682C72.242 58.2339 72.7604 58.3168 73.3239 58.3168C73.9441 58.3168 74.4957 58.2197 74.9787 58.0256C75.4664 57.8267 75.8499 57.5521 76.1293 57.2017C76.4086 56.8466 76.5483 56.4323 76.5483 55.9588C76.5483 55.5279 76.4252 55.1752 76.179 54.9006C75.9375 54.6259 75.6084 54.3987 75.1918 54.2188C74.7798 54.0388 74.3134 53.8802 73.7926 53.7429L72.0739 53.2741C70.9091 52.9569 69.9858 52.4905 69.304 51.875C68.6269 51.2595 68.2884 50.4451 68.2884 49.4318C68.2884 48.5937 68.5156 47.8622 68.9702 47.2372C69.4247 46.6122 70.0402 46.1269 70.8168 45.7812C71.5933 45.4309 72.4692 45.2557 73.4446 45.2557C74.4295 45.2557 75.2983 45.4285 76.0511 45.7741C76.8087 46.1198 77.4053 46.5956 77.8409 47.2017C78.2765 47.803 78.5038 48.4943 78.5227 49.2756H76.4062ZM80.6268 47.3438V45.4545H91.8839V47.3438H87.3455V60H85.158V47.3438H80.6268Z" fill="#2A2828"/>
</svg>
