<svg width="132" height="132" viewBox="0 0 132 132" fill="none" xmlns="http://www.w3.org/2000/svg">
<circle cx="66" cy="66" r="66" fill="#408D03" fill-opacity="0.2"/>
<circle cx="66" cy="66" r="47" fill="#408D03"/>
<path d="M71.3892 86.5966C68.4631 86.5966 65.8494 86.0923 63.5483 85.0838C61.2614 84.0753 59.4503 82.6761 58.1151 80.8864C56.794 79.0824 56.0838 76.9943 55.9844 74.6222H62.6747C62.7599 75.9148 63.1932 77.0369 63.9744 77.9886C64.7699 78.9261 65.8068 79.6506 67.0852 80.1619C68.3636 80.6733 69.7841 80.929 71.3466 80.929C73.0653 80.929 74.5852 80.6307 75.9062 80.0341C77.2415 79.4375 78.2855 78.6065 79.0384 77.5412C79.7912 76.4616 80.1676 75.2188 80.1676 73.8125C80.1676 72.3494 79.7912 71.0639 79.0384 69.956C78.2997 68.8338 77.2131 67.9531 75.7784 67.3139C74.358 66.6747 72.6392 66.3551 70.6222 66.3551H66.9361V60.9858H70.6222C72.2415 60.9858 73.6619 60.6946 74.8835 60.1122C76.1193 59.5298 77.0852 58.7202 77.7812 57.6832C78.4773 56.6321 78.8253 55.4034 78.8253 53.9972C78.8253 52.6477 78.5199 51.4759 77.9091 50.4815C77.3125 49.473 76.4602 48.6847 75.3523 48.1165C74.2585 47.5483 72.9659 47.2642 71.4744 47.2642C70.054 47.2642 68.7259 47.527 67.4901 48.0526C66.2685 48.5639 65.2741 49.3026 64.5071 50.2685C63.7401 51.2202 63.3281 52.3636 63.2713 53.6989H56.9006C56.9716 51.3409 57.6676 49.267 58.9886 47.4773C60.3239 45.6875 62.0852 44.2884 64.2727 43.2798C66.4602 42.2713 68.8892 41.767 71.5597 41.767C74.358 41.767 76.7727 42.3139 78.804 43.4077C80.8494 44.4872 82.4261 45.929 83.5341 47.733C84.6563 49.5369 85.2102 51.5114 85.196 53.6562C85.2102 56.0994 84.5284 58.1733 83.1506 59.8778C81.7869 61.5824 79.9688 62.7259 77.696 63.3082V63.6491C80.5938 64.0895 82.8381 65.2401 84.429 67.1009C86.0341 68.9616 86.8295 71.2699 86.8153 74.0256C86.8295 76.4261 86.1619 78.5781 84.8125 80.4815C83.4773 82.3849 81.652 83.8835 79.3366 84.9773C77.0213 86.0568 74.3722 86.5966 71.3892 86.5966Z" fill="white"/>
</svg>
