<svg width="132" height="132" viewBox="0 0 132 132" fill="none" xmlns="http://www.w3.org/2000/svg">
<circle cx="66" cy="66" r="66" fill="#408D03" fill-opacity="0.2"/>
<circle cx="66" cy="66" r="47" fill="#408D03"/>
<path d="M56.1974 86V81.2273L70.9631 65.929C72.5398 64.267 73.8395 62.8111 74.8622 61.5611C75.8991 60.2969 76.6733 59.0966 77.1847 57.9602C77.696 56.8239 77.9517 55.6165 77.9517 54.3381C77.9517 52.8892 77.6108 51.6392 76.929 50.5881C76.2472 49.5227 75.3168 48.706 74.1378 48.1378C72.9588 47.5554 71.6307 47.2642 70.1534 47.2642C68.5909 47.2642 67.2273 47.5838 66.0625 48.223C64.8977 48.8622 64.0028 49.7642 63.3778 50.929C62.7528 52.0937 62.4403 53.4574 62.4403 55.0199H56.1548C56.1548 52.3636 56.7656 50.0412 57.9872 48.0526C59.2088 46.0639 60.8849 44.5227 63.0156 43.429C65.1463 42.321 67.5682 41.767 70.2812 41.767C73.0227 41.767 75.4375 42.3139 77.5256 43.4077C79.6278 44.4872 81.2685 45.9645 82.4474 47.8395C83.6264 49.7003 84.2159 51.8026 84.2159 54.1463C84.2159 55.7656 83.9105 57.3494 83.2997 58.8977C82.7031 60.446 81.6591 62.1719 80.1676 64.0753C78.6761 65.9645 76.6023 68.2585 73.946 70.9574L65.2741 80.0341V80.3537H84.919V86H56.1974Z" fill="white"/>
</svg>
